<svg width="45" height="47" viewBox="0 0 45 47" fill="none" xmlns="http://www.w3.org/2000/svg">
<path d="M28.9726 23.8632C28.5616 23.4419 28.5616 22.81 28.9726 22.3888L44.3836 6.59206C44.7945 6.17081 45 5.53895 45 5.1177C45 4.69645 44.7945 4.06458 44.3836 3.64334L41.5069 0.694614C41.0959 0.273367 40.4795 0.0627441 40.0685 0.0627441C39.4521 0.0627441 39.0411 0.273367 38.6301 0.694614L23.2192 16.4913C22.8082 16.9126 22.1918 16.9126 21.7808 16.4913L6.36986 0.694614C5.9589 0.273367 5.34247 0.0627441 4.93151 0.0627441C4.52055 0.0627441 3.90411 0.273367 3.49315 0.694614L0.616438 3.64334C0.205479 4.06458 0 4.69645 0 5.1177C0 5.53895 0.205479 6.17081 0.616438 6.59206L16.0274 22.3888C16.4384 22.81 16.4384 23.4419 16.0274 23.8632L0.616438 39.6599C0.205479 40.0811 0 40.713 0 41.1343C0 41.5555 0.205479 42.1874 0.616438 42.6086L3.49315 45.5573C3.90411 45.9786 4.52055 46.1892 4.93151 46.1892C5.34247 46.1892 5.9589 45.9786 6.36986 45.5573L21.7808 29.7606C22.1918 29.3394 22.8082 29.3394 23.2192 29.7606L38.6301 45.5573C39.0411 45.9786 39.6575 46.1892 40.0685 46.1892C40.4795 46.1892 41.0959 45.9786 41.5069 45.5573L44.3836 42.6086C44.7945 42.1874 45 41.5555 45 41.1343C45 40.713 44.7945 40.0811 44.3836 39.6599L28.9726 23.8632Z" fill="#17252A"/>
</svg>
