<svg width="20" height="21" viewBox="0 0 20 21" fill="none" xmlns="http://www.w3.org/2000/svg">
<path d="M10 0.5C4.47748 0.5 0 4.97748 0 10.5C0 16.0232 4.47748 20.5 10 20.5C15.5225 20.5 20 16.0232 20 10.5C20 4.97811 15.5225 0.5 10 0.5ZM10 18.625C5.51253 18.625 1.87503 14.9875 1.87503 10.5C1.87503 6.01253 5.51253 2.37566 10 2.37566C14.4875 2.37566 18.125 6.01253 18.125 10.5C18.125 14.9875 14.4875 18.625 10 18.625ZM13.6131 9.87501H11.875V6.75001C11.875 6.40504 11.5956 6.12502 11.25 6.12502H8.74996C8.40499 6.12502 8.12497 6.40504 8.12497 6.75001V9.87501H6.38628C5.70815 9.87501 5.43065 10.3269 5.7694 10.8775L9.38312 14.45C9.72187 15.0012 10.2769 15.0012 10.6162 14.45L14.2293 10.8775C14.5693 10.3269 14.2918 9.87501 13.6131 9.87501Z" fill="white"/>
</svg>
